<svg width="240" height="240" viewBox="0 0 240 240" fill="none" xmlns="http://www.w3.org/2000/svg">
  <!-- Squircle Oficial da Marca (#2C3647) -->
  <rect x="30" y="30" width="180" height="180" rx="44" fill="#2C3647" />

  <!-- Corpo do Polvo Minimalista Branco (#FFFFFF) - Peça Única Plana -->
  <path 
    d="M 120,70 C 145,70 162,88 162,112 C 162,126 156,132 150,136 C 155,140 168,142 178,146 C 192,152 194,164 186,172 C 178,180 166,176 158,164 C 152,156 145,148 142,140 C 140,150 142,166 138,180 C 134,194 124,194 122,180 C 120,166 120,152 120,144 C 120,152 120,166 118,180 C 116,194 106,194 102,180 C 98,166 100,150 98,140 C 95,148 88,156 82,164 C 74,176 62,180 54,172 C 46,164 48,152 62,146 C 72,142 85,140 90,136 C 84,132 78,126 78,112 C 78,88 95,70 120,70 Z" 
    fill="#FFFFFF" 
  />

  <!-- Headset de Atendimento Integrado (Flat e Elegante #4A5A70) -->
  <!-- Haste do Headset (Fina, contornando o topo da cabeça de forma externa) -->
  <path 
    d="M 72 96 C 72 58, 168 58, 168 96" 
    stroke="#4A5A70" 
    strokeWidth="3.5" 
    fill="none" 
    strokeLinecap="round"
  />
  
  <!-- Conchas Laterais Discretas (Earcups) -->
  <rect x="66" y="86" width="7" height="18" rx="2" fill="#4A5A70" />
  <rect x="167" y="86" width="7" height="18" rx="2" fill="#4A5A70" />

  <!-- Haste do Microfone Fina e Elegante em #2C3647 (dentro da cabeça do polvo) -->
  <path 
    d="M 72 102 Q 80 124, 96 120" 
    stroke="#2C3647" 
    strokeWidth="2" 
    fill="none" 
    strokeLinecap="round" 
  />
  <circle cx="96" cy="120" r="3" fill="#2C3647" />

  <!-- Olhos - Elipses verticais simétricas oficiais (#2C3647) -->
  <ellipse cx="106" cy="112" rx="5" ry="7.5" fill="#2C3647" />
  <ellipse cx="134" cy="112" rx="5" ry="7.5" fill="#2C3647" />
</svg>
