<?xml version="1.0" standalone="no"?>
<!DOCTYPE svg PUBLIC "-//W3C//DTD SVG 20010904//EN"
 "http://www.w3.org/TR/2001/REC-SVG-20010904/DTD/svg10.dtd">
<svg version="1.0" xmlns="http://www.w3.org/2000/svg"
 width="1934.014858pt" height="1908.339506pt" viewBox="0 0 1934.014858 1908.339506"
 preserveAspectRatio="xMidYMid meet" role="img">
<metadata>
Created by potrace 1.16, written by Peter Selinger 2001-2019
</metadata>
<g transform="translate(-233.000000,2141.339506) scale(0.100000,-0.100000)"
fill="#FFFFFF" stroke="none">
<path d="M8804 21412 c-10 -2 -35 -21 -55 -43 l-37 -39 -755 0 -756 0 -32 -40
-32 -40 -464 0 -464 0 -44 -45 -44 -46 -213 1 c-211 1 -213 1 -230 -22 -44
-60 -39 -58 -178 -58 -141 0 -127 5 -185 -62 -12 -15 -31 -18 -101 -18 l-86 0
-44 -45 -44 -46 -86 2 -87 2 -36 -41 c-33 -39 -40 -42 -83 -42 -43 0 -50 -3
-79 -40 -30 -37 -36 -40 -81 -40 -41 0 -53 -4 -71 -26 -12 -14 -29 -32 -37
-40 -25 -23 -70 -68 -85 -86 -10 -13 -29 -18 -61 -18 -45 0 -49 -2 -129 -85
-78 -80 -86 -85 -125 -85 -41 0 -43 -2 -396 -355 -353 -353 -354 -354 -354
-396 0 -40 -5 -47 -79 -118 -76 -74 -79 -78 -83 -131 -4 -43 -10 -57 -29 -70
-13 -8 -33 -26 -44 -39 -11 -12 -29 -30 -39 -40 -52 -45 -56 -51 -56 -96 0
-46 -7 -57 -64 -103 -10 -8 -16 -29 -16 -58 0 -41 -5 -50 -45 -90 l-45 -43 0
-90 0 -90 -32 -22 c-47 -33 -48 -35 -48 -130 0 -90 -5 -103 -52 -132 -26 -16
-26 -17 -30 -158 -3 -128 -5 -143 -22 -153 -11 -6 -30 -21 -43 -33 -22 -21
-23 -27 -23 -197 l0 -175 -32 -22 c-18 -13 -36 -28 -40 -34 -4 -5 -8 -217 -8
-471 0 -493 2 -474 -52 -507 l-28 -17 0 -551 0 -550 -25 -24 c-13 -14 -28 -25
-33 -25 -5 0 -14 -11 -20 -25 -9 -20 -12 -919 -12 -3641 l0 -3615 45 -43 45
-44 0 -630 0 -630 40 -32 40 -32 0 -464 c0 -510 -5 -465 58 -516 21 -17 22
-26 22 -188 l0 -171 45 -43 45 -44 0 -130 0 -130 40 -32 40 -32 0 -89 c0 -94
0 -94 58 -141 19 -16 22 -28 22 -104 l0 -86 45 -44 c42 -40 45 -47 45 -93 0
-44 3 -53 28 -68 42 -26 52 -43 52 -91 0 -43 4 -48 85 -127 82 -80 85 -85 85
-129 0 -29 6 -50 16 -58 8 -7 44 -41 80 -75 60 -59 64 -65 64 -108 0 -38 5
-51 26 -68 14 -12 33 -29 41 -38 20 -21 61 -62 82 -82 9 -8 26 -25 37 -38 27
-30 63 -66 93 -93 13 -11 30 -28 38 -37 20 -21 61 -62 82 -82 9 -8 26 -25 37
-38 27 -30 63 -66 93 -93 13 -11 30 -28 38 -37 20 -21 61 -62 82 -82 9 -8 26
-27 38 -41 17 -21 30 -26 68 -26 45 0 49 -3 124 -80 73 -75 80 -80 120 -80 37
0 48 -6 87 -45 39 -40 48 -45 89 -45 45 0 48 -2 100 -62 10 -12 30 -18 61 -18
41 0 50 -4 83 -40 32 -35 42 -40 80 -40 38 0 48 -5 87 -45 39 -40 48 -45 89
-45 45 0 48 -2 100 -62 12 -15 31 -18 103 -18 l87 0 36 -41 36 -42 127 2 127
2 44 -46 44 -45 6251 0 c5968 0 6251 1 6267 18 10 9 25 29 34 42 16 25 17 25
195 27 l179 2 35 41 35 40 87 0 c94 0 87 -3 143 63 10 11 30 17 60 17 41 0 50
5 89 45 39 40 49 45 87 45 38 0 48 5 80 40 33 36 42 40 83 40 46 0 49 1 101
62 10 12 30 18 60 18 41 0 50 5 89 45 39 39 50 45 86 45 40 0 47 5 166 125
l124 125 50 0 c47 0 52 3 70 33 11 19 32 40 46 47 14 8 32 26 41 41 9 15 27
33 40 40 13 7 32 27 43 44 11 17 31 37 45 43 14 6 31 23 37 37 6 14 26 34 43
45 17 11 37 30 44 44 7 13 24 30 38 37 13 7 32 26 41 41 9 16 31 38 49 48 30
18 33 24 33 69 l0 50 109 108 c60 59 117 114 125 121 10 8 16 29 16 58 0 41 5
50 45 90 40 39 45 48 45 89 0 45 2 48 63 100 12 11 17 30 17 64 0 42 4 53 28
70 15 12 33 26 40 31 6 6 12 31 12 56 0 41 5 50 45 90 l45 43 0 90 0 90 33 22
c46 33 47 35 47 130 0 90 5 103 53 132 l27 17 0 176 0 175 45 43 45 44 0 380
0 381 33 22 c17 13 35 28 39 34 4 5 8 256 8 557 l0 546 40 32 40 31 2 1056 c3
1033 3 1056 22 1067 11 6 30 21 43 33 l23 22 -2 1967 c-3 1935 -3 1967 -22
1978 -11 6 -30 21 -43 33 l-23 22 0 1050 0 1051 -27 17 c-55 34 -53 4 -53 632
0 322 -4 591 -8 596 -4 6 -22 21 -39 34 l-33 22 0 340 0 340 -45 43 -45 44 0
171 c0 144 -2 172 -16 183 -64 52 -64 52 -64 147 l0 89 -40 32 -40 32 0 89 c0
95 -8 112 -65 144 -13 8 -19 26 -23 68 -4 52 -8 60 -43 88 -35 28 -39 35 -39
77 0 54 -3 60 -47 91 -30 20 -33 27 -33 72 0 51 -16 77 -64 104 -13 8 -20 27
-24 65 -4 53 -7 57 -83 131 -74 71 -79 78 -79 118 0 42 -1 43 -354 396 -353
353 -355 355 -396 355 -39 0 -47 5 -125 85 -80 83 -84 85 -129 85 -33 0 -51 5
-62 19 -17 20 -56 59 -83 84 -9 8 -26 27 -38 41 -18 22 -30 26 -71 26 -45 0
-51 3 -81 40 -29 37 -36 40 -79 40 -43 0 -50 3 -83 42 l-36 41 -87 -2 -86 -2
-44 46 -44 45 -86 0 c-91 0 -85 -3 -141 63 -13 15 -34 17 -145 17 -139 0 -134
-2 -178 58 -17 22 -19 22 -281 25 l-264 2 -16 25 c-42 64 -5 60 -515 60 l-464
0 -32 40 -32 40 -756 0 -757 0 -35 40 -35 40 -3156 3 c-1735 1 -3164 0 -3175
-1z"/>
</g>
</svg>
