<svg width="176" height="38" viewBox="0 0 176 38" fill="none" xmlns="http://www.w3.org/2000/svg">
<g clip-path="url(#clip0_2993_2077)">
<path d="M52.8682 27.5013C48.048 27.5013 44.2117 23.6083 44.2117 18.7502C44.2117 13.8922 48.048 9.99913 52.8682 9.99913C57.6226 9.99913 61.459 13.8922 61.459 18.7502C61.459 23.6083 57.6226 27.5013 52.8682 27.5013ZM52.8682 23.4752C55.3274 23.4752 57.2947 21.4454 57.2947 18.7502C57.2947 16.055 55.3601 14.0253 52.8682 14.0253C50.3105 14.0253 48.3759 16.055 48.3759 18.7502C48.3759 21.4454 50.3105 23.4752 52.8682 23.4752Z" fill="#2D354D"/>
<path d="M75.453 16.2881C74.65 14.8706 73.2139 14.0253 71.6236 14.0253C69.0987 14.0253 67.2625 16.0883 67.2625 18.7835C67.2625 21.4454 69.0987 23.5084 71.6236 23.5084C73.2604 23.5084 74.7337 22.5798 75.5217 21.0868L78.9697 23.2898C77.4759 25.8478 74.7504 27.5345 71.6236 27.5345C66.8035 27.5345 63.0982 23.6415 63.0982 18.7835C63.0982 13.8922 66.8035 9.99913 71.6236 9.99913C74.6973 9.99913 77.4038 11.6615 78.9043 14.1617L75.453 16.2881Z" fill="#2D354D"/>
<path d="M90.9617 14.2863H87.1252V21.5758C87.1252 22.9401 87.7155 23.5723 88.9287 23.5723H90.9617V27.4654H88.3057C84.7644 27.4654 83.0265 25.7351 83.0265 22.1082V14.2863H80.0755V10.5596H83.0265V6.43363L87.1252 5.13594V10.5596H90.9617V14.2863Z" fill="#2D354D"/>
<path d="M100.011 9.99913C104.044 9.99913 107.06 12.8274 107.06 16.9867V27.5013H103.06V25.1388C101.847 26.4698 99.9455 27.468 97.8466 27.5013C95.0597 27.5013 92.6006 25.6379 92.6006 22.4437C92.6006 19.4157 94.8303 17.6854 98.1425 17.0199L102.962 16.0882C102.634 14.6908 101.585 13.626 100.011 13.626C98.4374 13.626 96.962 14.6242 96.0763 15.8887L92.9512 13.9181L93.0597 13.6593C94.6009 11.4632 97.3224 9.99913 100.011 9.99913ZM98.9289 23.9742C101.093 23.9742 103.06 22.3106 103.06 20.1144V19.3491L98.8633 20.1809C97.4534 20.5137 96.6006 21.2458 96.6006 22.2107C96.6006 23.209 97.4862 23.9742 98.9289 23.9742Z" fill="#2D354D"/>
<path d="M121.262 5.13594H125.361V27.4388H121.262V24.9879C120.312 26.452 118.639 27.5168 116.376 27.5168C112.179 27.5168 108.934 23.8567 108.966 18.7657C109.032 13.7414 112.245 10.0146 116.443 10.0146C118.606 10.0146 120.245 11.0129 121.262 12.3771V5.13594ZM117.196 23.5239C119.557 23.5239 121.36 21.594 121.36 18.7657C121.36 15.9041 119.557 14.0076 117.229 14.0076C114.868 14.0076 113.131 16.004 113.131 18.799C113.131 21.5275 114.835 23.4906 117.196 23.5239Z" fill="#2D354D"/>
<path d="M143.271 17.3527C143.37 18.2511 143.37 19.2826 143.239 20.4139H131.697C132.155 22.5102 133.533 23.708 135.631 23.708C137.467 23.708 139.009 22.7763 139.73 21.4121L142.944 23.2755C141.567 25.8376 138.615 27.5013 135.566 27.5013C130.844 27.5013 127.533 23.6748 127.533 18.7502C127.533 13.8256 130.811 9.99913 135.599 9.99913C139.468 9.99913 142.747 12.4947 143.271 17.3527ZM135.468 13.7924C133.369 13.7924 132.09 15.0901 131.697 17.153H139.206C139.042 14.957 137.369 13.7924 135.468 13.7924Z" fill="#2D354D"/>
<path d="M159.795 27.5632V5.13594H164.077V17.6635L169.548 10.6445H175.114L167.868 18.998L175.391 27.5632H169.826L164.077 20.2393V27.5632H159.795Z" fill="#2D354D"/>
<path d="M158.157 22.1441C158.157 25.5381 155.075 27.5345 151.468 27.5345C148.298 27.5345 145.878 25.987 144.98 23.5785L148.082 21.891C148.749 22.9721 149.788 23.9742 151.599 23.9742C153.041 23.9742 154.222 23.3753 154.222 22.5102C154.222 21.5452 152.878 21.0461 150.975 20.547C148.713 19.9481 145.434 18.9498 145.434 15.3229C145.434 11.9956 148.254 9.99913 151.664 9.99913C154.503 9.99913 156.666 11.3923 157.599 13.5921L154.454 15.3422C154.004 14.2863 153.005 13.5262 151.631 13.5262C150.385 13.5262 149.369 14.1584 149.369 15.0567C149.369 15.9552 150.418 16.3878 152.123 16.8536C152.184 16.8692 152.247 16.8853 152.31 16.9016C154.419 17.4414 158.157 18.3982 158.157 22.1441Z" fill="#2D354D"/>
<path d="M37.1043 7.5832C36.7329 3.6906 33.9199 0.845478 30.0725 0.470971C27.3976 0.209951 23.714 0 18.7849 0C13.8559 0 10.3349 0.205412 7.6769 0.457353C3.72736 0.832995 0.839275 3.77912 0.462274 7.77273C0.20533 10.4828 0 14.1666 0 18.9966C0 23.8266 0.206453 27.5138 0.462274 30.2273C0.840396 34.2209 3.72625 37.167 7.67577 37.5427C10.3349 37.7992 13.9625 38 18.7838 38C23.6052 38 27.3976 37.7901 30.0714 37.529C33.9188 37.1545 36.7317 34.3083 37.1031 30.4168C37.3611 27.7113 37.5688 23.9866 37.5688 19C37.5688 14.0134 37.3611 10.2876 37.1031 7.5832M28.8663 25.7707C28.3075 25.9091 27.7264 25.9522 27.1507 25.9488C26.8478 25.9488 26.638 25.9397 26.2453 25.8989C24.6666 25.7365 23.5838 25.2032 22.8792 24.6154C22.8085 24.5564 22.6671 24.5087 22.5168 24.6221C22.3923 24.7379 22.3923 24.8866 22.482 25.1078C22.5269 25.2032 22.7681 25.5958 22.7681 25.5958C22.7681 25.5958 22.9813 25.9817 23.0688 26.1202C23.7555 27.0666 24.3603 27.7589 24.891 28.2821C25.3465 28.7451 25.5036 29.4771 25.2299 30.1319C25.148 30.3374 25.0245 30.5098 24.8719 30.6676C24.2279 31.3349 23.1575 31.3145 22.5291 30.7028C21.8615 30.0446 21.1906 29.3137 20.3648 28.0948C19.705 27.1699 19.2136 26.1327 18.914 25.033C18.8915 24.9524 18.8477 24.9047 18.7849 24.9047C18.7221 24.9047 18.6795 24.9524 18.6559 25.033C18.3563 26.1327 17.8648 27.1688 17.2051 28.0948C16.3793 29.3137 15.7084 30.0446 15.0407 30.7028C14.4124 31.3145 13.3431 31.3349 12.6979 30.6676C12.5453 30.5098 12.4219 30.3374 12.34 30.1319C12.0652 29.476 12.2233 28.744 12.6788 28.2821C13.2095 27.7589 13.8155 27.0666 14.5011 26.1202C14.5885 25.9817 14.8018 25.5958 14.8018 25.5958C14.8018 25.5958 15.0429 25.2032 15.0879 25.1078C15.1777 24.8866 15.1777 24.7368 15.0531 24.6221C14.9016 24.5075 14.7613 24.5564 14.6907 24.6154C13.9871 25.2032 12.9033 25.7377 11.3246 25.8989C10.9318 25.9386 10.7209 25.9488 10.4191 25.9488C9.84355 25.9522 9.26231 25.9091 8.70467 25.7707C7.81602 25.5289 7.29764 24.5779 7.53776 23.6802C7.77226 22.8029 8.65193 22.2707 9.52712 22.4795C9.96132 22.5601 10.6267 22.5873 11.1092 22.5022C12.6542 22.3183 13.8503 21.356 13.9826 19.6163C14.0197 18.6187 13.636 17.9911 13.1176 17.2625C12.4388 16.2502 11.6982 14.986 11.6982 13.3654C11.6982 9.50798 15.1159 6.4767 18.7872 6.4767C22.4584 6.4767 25.8761 9.50798 25.8761 13.3654C25.8761 14.986 25.1356 16.2491 24.4568 17.2625C23.9384 17.9911 23.5547 18.6187 23.5917 19.6163C23.7229 21.356 24.9191 22.3183 26.4652 22.5022C26.9465 22.5862 27.613 22.559 28.0473 22.4795C28.9224 22.2718 29.8033 22.8029 30.0366 23.6802C30.2756 24.5791 29.7572 25.5289 28.8697 25.7707" fill="#2D354D"/>
<path d="M16.6935 12.7606C15.9552 12.7606 15.3685 13.2781 15.3685 14.3959C15.3685 15.5138 15.9654 15.7953 16.7036 15.7953C17.4419 15.7953 18.0388 15.5138 18.0388 14.3959C18.0388 13.2781 17.4329 12.7606 16.6946 12.7606" fill="#2D354D"/>
<path d="M20.8571 12.7606C20.1188 12.7606 19.532 13.2781 19.532 14.3959C19.532 15.5138 20.1289 15.7953 20.8672 15.7953C21.6055 15.7953 22.2024 15.5138 22.2024 14.3959C22.2024 13.2781 21.5965 12.7606 20.8582 12.7606" fill="#2D354D"/>
</g>
<defs>
<clipPath id="clip0_2993_2077">
<rect width="176" height="38" fill="white"/>
</clipPath>
</defs>
</svg>
