<?xml version="1.0" standalone="no"?>
<!DOCTYPE svg PUBLIC "-//W3C//DTD SVG 20010904//EN"
 "http://www.w3.org/TR/2001/REC-SVG-20010904/DTD/svg10.dtd">
<svg version="1.0" xmlns="http://www.w3.org/2000/svg"
 width="1896.595519pt" height="1875.672317pt" viewBox="0 0 1896.595519 1875.672317"
 preserveAspectRatio="xMidYMid meet" role="img">
<metadata>
Created by potrace 1.16, written by Peter Selinger 2001-2019
</metadata>
<g transform="translate(-250.184406,2125.789123) scale(0.100000,-0.100000)"
fill="#2B354B" stroke="none">
<path d="M10580 21249 c-670 -7 -1170 -20 -1530 -39 -144 -7 -951 -43 -1236
-55 -161 -6 -322 -20 -634 -55 -47 -6 -195 -15 -329 -20 -213 -9 -475 -31
-521 -45 -8 -2 -112 -16 -230 -30 -135 -16 -234 -33 -265 -45 -27 -11 -107
-31 -176 -44 -70 -13 -144 -33 -165 -44 -22 -11 -64 -25 -94 -32 -30 -7 -95
-29 -145 -50 -49 -21 -110 -43 -135 -50 -25 -6 -67 -25 -95 -40 -27 -16 -70
-36 -95 -46 -25 -10 -55 -26 -68 -35 -13 -10 -49 -28 -80 -39 -30 -12 -92 -45
-137 -75 -45 -30 -111 -70 -146 -89 -35 -19 -95 -61 -134 -92 -38 -30 -88 -65
-110 -76 -22 -12 -67 -46 -100 -78 -33 -31 -76 -67 -95 -80 -43 -30 -372 -363
-455 -460 -62 -74 -88 -108 -117 -156 -10 -16 -38 -54 -63 -84 -25 -30 -57
-75 -72 -100 -33 -58 -97 -161 -139 -225 -18 -27 -38 -68 -45 -90 -7 -22 -27
-62 -46 -89 -18 -26 -33 -54 -33 -61 0 -7 -17 -46 -39 -87 -21 -40 -46 -100
-56 -133 -9 -32 -27 -80 -40 -106 -13 -25 -35 -84 -48 -130 -14 -46 -34 -106
-45 -134 -11 -27 -28 -90 -37 -139 -9 -49 -25 -114 -36 -145 -22 -62 -94 -515
-109 -686 -5 -60 -14 -200 -20 -310 -10 -193 -20 -313 -40 -460 -11 -82 -17
-162 -31 -415 -14 -257 -38 -672 -50 -880 -14 -219 -14 -208 -28 -895 -16
-728 -9 -5399 8 -5630 6 -82 15 -244 21 -360 6 -115 15 -284 20 -375 5 -91 14
-259 20 -375 12 -234 32 -486 54 -675 8 -69 20 -217 26 -330 6 -113 15 -259
21 -325 16 -184 85 -615 113 -703 13 -43 30 -107 36 -142 13 -75 102 -343 135
-410 12 -25 30 -71 39 -104 10 -32 30 -82 46 -110 16 -28 36 -70 44 -94 8 -23
26 -57 39 -75 14 -17 30 -48 36 -68 6 -19 30 -65 54 -101 23 -35 58 -91 77
-123 60 -99 121 -189 150 -220 15 -16 38 -50 50 -73 12 -24 46 -69 77 -100 30
-32 69 -78 85 -104 16 -27 33 -48 38 -48 11 0 88 -78 121 -123 15 -21 45 -51
66 -66 21 -15 68 -57 105 -92 93 -90 200 -178 260 -216 29 -18 63 -44 77 -57
29 -28 192 -136 204 -136 5 0 27 -13 50 -29 72 -49 190 -121 199 -121 5 0 78
-33 161 -74 84 -41 186 -84 227 -96 41 -13 93 -32 114 -43 64 -31 304 -106
396 -123 47 -8 119 -24 160 -35 41 -10 98 -25 125 -31 64 -15 11549 -24 11860
-9 158 7 221 15 300 35 55 13 138 32 183 40 87 15 281 73 367 108 28 12 93 35
145 53 109 37 431 193 535 259 39 25 93 57 120 72 59 31 133 83 194 136 24 21
49 38 56 38 7 0 47 30 89 68 43 37 94 78 115 92 39 27 401 390 401 403 0 4 29
41 65 82 36 41 81 101 100 133 19 32 41 65 50 72 20 16 135 188 135 201 0 4
27 51 61 104 33 54 76 133 95 178 19 45 39 86 44 92 4 5 22 45 39 88 17 43 38
88 46 100 7 12 24 58 35 102 12 44 30 94 40 110 10 17 30 77 45 135 14 58 37
137 50 175 13 39 28 111 34 160 6 50 20 125 31 167 28 107 36 175 60 488 11
151 27 322 35 380 18 132 32 327 45 635 13 282 23 439 44 665 8 91 19 325 26
520 6 195 15 492 21 660 23 671 28 982 35 2115 7 1195 -5 2611 -26 3005 -6
107 -17 438 -25 735 -15 511 -23 678 -45 875 -11 105 -16 190 -36 600 -8 179
-21 381 -29 450 -15 123 -30 284 -60 650 -9 103 -24 216 -35 255 -11 39 -28
131 -39 205 -11 75 -29 159 -40 188 -11 28 -32 96 -46 151 -14 55 -34 115 -44
133 -11 18 -27 63 -35 100 -9 37 -31 100 -50 140 -18 40 -57 125 -85 188 -60
134 -57 126 -141 270 -88 151 -173 282 -194 299 -10 8 -27 33 -38 55 -11 23
-48 73 -82 111 -34 39 -70 81 -79 95 -47 70 -328 354 -404 409 -21 15 -65 53
-98 83 -33 30 -74 62 -92 71 -17 9 -51 34 -75 54 -51 44 -118 89 -243 163 -49
30 -103 63 -120 75 -16 12 -52 30 -80 40 -27 10 -61 26 -75 35 -82 55 -260
130 -500 210 -52 18 -122 42 -156 55 -33 13 -105 31 -160 40 -54 10 -121 26
-149 37 -45 18 -235 47 -410 63 -38 3 -131 15 -205 25 -135 19 -318 34 -565
45 -145 6 -319 20 -440 35 -174 21 -315 30 -675 45 -340 14 -547 23 -1010 45
-422 21 -823 30 -1665 40 -1010 11 -1542 11 -2635 -1z m1625 -3259 c93 -6 219
-22 330 -44 99 -18 201 -37 226 -40 26 -4 123 -34 215 -67 93 -34 196 -70 229
-81 57 -19 223 -94 275 -124 14 -9 61 -33 105 -55 44 -21 95 -49 112 -62 18
-12 62 -40 98 -62 120 -73 152 -95 197 -134 24 -22 68 -53 98 -71 29 -17 61
-41 70 -53 10 -12 44 -42 75 -67 60 -47 425 -409 425 -422 0 -4 34 -46 75 -94
42 -47 87 -107 100 -133 13 -26 31 -53 40 -61 20 -16 98 -135 135 -205 15 -27
46 -81 70 -120 24 -38 65 -119 91 -180 26 -60 70 -162 98 -225 28 -63 57 -149
66 -190 8 -41 29 -115 45 -165 16 -49 34 -119 40 -155 6 -36 22 -120 36 -187
30 -151 42 -459 25 -659 -12 -148 -70 -459 -102 -549 -12 -33 -32 -100 -44
-150 -21 -82 -104 -294 -126 -321 -5 -7 -23 -47 -38 -90 -16 -44 -55 -121 -85
-172 -31 -52 -70 -119 -85 -150 -16 -32 -54 -92 -85 -136 -31 -43 -68 -100
-81 -125 -13 -26 -31 -53 -40 -61 -9 -8 -27 -35 -40 -60 -13 -26 -35 -61 -50
-78 -14 -16 -32 -47 -41 -68 -9 -21 -26 -52 -38 -68 -38 -52 -103 -179 -121
-236 -10 -30 -30 -84 -46 -120 -36 -84 -59 -251 -59 -418 1 -141 17 -249 50
-332 12 -30 34 -91 49 -135 16 -44 46 -107 67 -141 21 -33 55 -87 74 -118 32
-53 92 -131 187 -246 58 -70 197 -194 294 -263 103 -74 294 -187 344 -203 28
-9 87 -32 131 -50 83 -34 147 -48 398 -85 169 -25 226 -23 506 21 261 41 406
48 535 25 63 -12 108 -26 132 -42 19 -13 57 -32 84 -42 79 -31 228 -168 300
-279 73 -113 96 -162 114 -250 25 -124 27 -202 10 -328 -13 -98 -23 -134 -55
-202 -22 -46 -55 -102 -73 -125 -19 -23 -44 -59 -56 -80 -22 -37 -115 -113
-229 -189 -106 -69 -384 -132 -817 -184 -136 -17 -391 -14 -545 5 -41 5 -151
19 -245 30 -93 12 -233 37 -310 56 -77 18 -176 41 -220 51 -44 9 -93 24 -110
34 -16 10 -54 25 -83 35 -29 9 -82 32 -118 51 -36 19 -73 34 -81 34 -9 0 -44
15 -77 34 -135 75 -204 109 -266 128 -74 23 -176 76 -235 123 -22 17 -64 44
-92 60 -29 15 -53 32 -53 36 0 5 -30 29 -67 54 -70 46 -113 56 -154 35 -26
-14 -49 -62 -49 -103 0 -39 31 -135 59 -181 10 -17 26 -54 35 -83 10 -29 28
-68 41 -87 13 -19 33 -55 44 -80 11 -25 31 -60 44 -78 14 -18 32 -49 40 -69 8
-20 49 -83 91 -139 42 -56 76 -106 76 -111 0 -5 16 -27 36 -48 38 -43 54 -63
130 -173 28 -40 77 -101 108 -136 31 -34 56 -67 56 -72 0 -5 36 -48 80 -95 44
-47 80 -90 80 -96 0 -5 39 -50 86 -101 47 -51 122 -133 167 -182 45 -48 113
-120 151 -160 124 -127 226 -379 226 -556 0 -103 -43 -259 -106 -381 -47 -91
-71 -126 -134 -189 -76 -77 -190 -163 -233 -176 -12 -3 -62 -22 -110 -40 -73
-29 -106 -36 -196 -41 -124 -7 -256 9 -316 37 -22 11 -66 28 -97 39 -35 12
-86 43 -130 78 -39 32 -81 65 -93 73 -11 8 -70 67 -129 130 -60 63 -139 147
-175 185 -37 39 -78 86 -93 105 -14 19 -46 55 -72 80 -26 25 -57 61 -68 80
-12 19 -47 62 -78 95 -31 33 -69 80 -85 105 -15 25 -47 67 -71 93 -24 26 -78
96 -120 155 -42 59 -92 123 -109 142 -18 19 -40 49 -48 66 -9 17 -42 62 -73
100 -31 38 -67 92 -81 119 -14 28 -37 64 -52 81 -27 33 -59 85 -126 210 -22
41 -68 125 -101 187 -34 61 -65 123 -69 137 -4 14 -22 54 -40 90 -18 36 -38
83 -45 105 -7 22 -23 58 -35 80 -13 22 -30 68 -39 102 -9 35 -24 80 -34 100
-18 35 -46 126 -72 230 -17 67 -79 103 -123 71 -21 -16 -71 -141 -102 -257
-13 -46 -32 -105 -44 -130 -11 -25 -35 -84 -54 -131 -77 -189 -90 -219 -139
-315 -28 -55 -69 -136 -91 -180 -22 -44 -61 -111 -87 -150 -26 -38 -57 -90
-70 -115 -26 -52 -121 -193 -155 -230 -12 -14 -30 -39 -38 -56 -9 -17 -43 -64
-77 -104 -34 -40 -68 -87 -77 -104 -9 -17 -32 -49 -52 -72 -20 -22 -54 -64
-76 -94 -22 -29 -67 -86 -100 -127 -33 -41 -82 -102 -108 -136 -26 -34 -72
-87 -101 -117 -29 -30 -61 -66 -70 -80 -15 -23 -59 -72 -247 -274 -42 -44 -82
-90 -90 -102 -8 -12 -43 -44 -79 -72 -171 -134 -192 -146 -365 -204 -75 -25
-255 -35 -346 -19 -66 11 -269 83 -302 106 -63 44 -222 195 -237 225 -11 21
-30 50 -43 66 -37 44 -97 194 -109 271 -6 37 -8 131 -6 208 5 137 6 142 46
238 23 55 53 113 67 129 15 17 37 52 50 78 13 26 46 66 74 89 28 23 66 64 85
90 20 26 54 61 76 76 22 15 57 51 78 79 20 28 67 82 104 120 38 38 68 73 68
77 0 5 25 37 56 71 31 35 90 108 131 163 42 55 90 116 108 135 18 19 40 49 48
66 9 16 45 66 82 110 37 43 78 99 91 124 14 25 39 64 57 87 46 60 94 139 123
201 13 30 32 66 43 80 32 46 91 211 91 256 0 46 -42 123 -83 151 -50 35 -135
4 -257 -95 -86 -69 -175 -127 -215 -140 -22 -7 -56 -23 -75 -36 -33 -22 -87
-43 -289 -115 -46 -17 -93 -36 -105 -44 -43 -27 -276 -114 -348 -129 -40 -9
-126 -29 -191 -46 -65 -16 -159 -34 -210 -40 -51 -6 -139 -17 -197 -25 -363
-48 -486 -48 -862 4 -258 36 -339 53 -537 112 -42 13 -88 37 -135 72 -39 30
-84 62 -100 72 -15 10 -65 64 -109 119 -74 93 -85 112 -126 226 l-45 125 0
155 -1 155 42 120 c58 164 150 293 277 388 68 51 238 132 306 146 166 34 221
32 515 -13 355 -56 350 -56 582 -21 204 31 288 50 328 74 17 10 62 28 99 41
37 12 90 37 117 56 28 19 57 34 65 34 7 0 28 13 46 29 18 15 53 39 78 51 94
47 390 308 466 410 23 30 58 71 79 90 20 19 50 62 66 94 16 33 38 69 48 80 11
12 29 42 40 68 11 26 29 60 41 76 18 24 35 81 80 261 15 60 21 223 12 311 -14
127 -68 354 -96 408 -14 26 -40 76 -56 112 -53 111 -113 218 -171 303 -31 45
-86 128 -123 184 -36 56 -71 105 -77 108 -5 4 -21 32 -34 62 -14 30 -35 67
-47 82 -55 64 -242 411 -291 536 -39 99 -76 191 -112 275 -12 30 -35 114 -50
185 -14 72 -35 166 -45 210 -11 44 -24 124 -30 177 -13 125 -13 470 0 596 12
111 71 433 99 537 24 90 86 266 110 314 11 20 27 63 36 96 9 33 27 76 39 95
12 19 30 55 41 80 11 25 29 59 41 75 13 17 32 52 44 79 23 54 185 302 249 381
23 28 53 67 68 89 16 21 62 75 104 120 41 44 83 95 93 111 10 17 33 42 52 54
19 13 58 49 87 80 29 31 68 67 87 81 19 13 66 53 105 88 38 35 83 71 100 79
16 8 44 28 60 43 31 29 162 117 311 210 49 30 169 95 269 144 161 79 231 107
465 186 36 12 94 32 130 46 36 13 103 30 150 39 47 8 144 26 216 40 269 50
521 64 829 45z"/>
<path d="M12885 14873 c-124 -16 -195 -37 -282 -85 -95 -52 -95 -52 -230 -220
-18 -22 -33 -46 -33 -54 0 -9 -15 -61 -34 -117 -48 -142 -63 -297 -46 -461 7
-67 19 -139 27 -161 8 -22 25 -71 39 -110 21 -60 36 -81 101 -147 79 -79 93
-87 233 -134 78 -26 100 -29 258 -32 170 -4 174 -3 280 29 133 40 165 55 229
114 85 75 150 204 172 340 6 33 16 91 22 128 10 57 9 89 -6 200 -24 176 -45
256 -95 358 -77 158 -233 285 -400 327 -80 20 -185 32 -235 25z"/>
<path d="M10778 14850 c-140 -25 -238 -84 -347 -205 -71 -80 -83 -100 -111
-180 -54 -154 -61 -193 -67 -360 -6 -191 9 -295 62 -425 27 -67 47 -98 94
-147 83 -86 119 -107 256 -144 109 -30 133 -33 260 -33 128 0 151 3 260 33
138 38 147 43 234 125 52 50 72 79 108 156 53 114 64 182 63 394 0 194 -11
257 -66 397 -44 111 -50 121 -127 200 -87 89 -173 145 -267 174 -64 19 -281
29 -352 15z"/>
</g>
</svg>
