<?xml version="1.0" standalone="no"?>
<!DOCTYPE svg PUBLIC "-//W3C//DTD SVG 20010904//EN"
 "http://www.w3.org/TR/2001/REC-SVG-20010904/DTD/svg10.dtd">
<svg version="1.0" xmlns="http://www.w3.org/2000/svg"
 width="2400.035452pt" height="487.643341pt" viewBox="0 0 2400.035452 487.643341"
 preserveAspectRatio="xMidYMid meet" role="img">
<metadata>
Created by potrace 1.16, written by Peter Selinger 2001-2019
</metadata>
<g transform="translate(0.035452,611.748643) scale(0.100000,-0.100000)"
fill="#2B354B" stroke="none">
<path d="M1760 6109 c-151 -4 -365 -15 -475 -23 -110 -9 -229 -18 -265 -21
-184 -14 -369 -77 -525 -179 -115 -76 -279 -261 -325 -368 -5 -12 -14 -30 -19
-38 -11 -17 -41 -99 -64 -175 -21 -67 -45 -271 -57 -488 -6 -98 -15 -187 -20
-197 -14 -26 -14 -1859 0 -1896 6 -15 15 -102 20 -193 12 -208 37 -421 57
-486 23 -74 53 -158 64 -175 5 -8 13 -25 19 -38 26 -60 111 -175 184 -247 150
-149 326 -241 535 -281 74 -14 324 -35 641 -54 200 -12 1616 -12 1825 0 323
19 572 39 651 54 206 37 374 120 518 256 187 177 279 372 312 665 23 203 43
572 55 1031 20 776 -26 1867 -87 2068 -89 292 -251 493 -502 623 -144 75 -277
108 -502 123 -80 6 -197 15 -260 20 -302 26 -1187 36 -1780 19z m825 -839
c147 -32 240 -70 342 -137 199 -131 336 -317 400 -543 27 -98 25 -310 -5 -404
-25 -76 -73 -179 -113 -241 -87 -135 -109 -171 -109 -181 0 -7 -7 -25 -15 -40
-9 -18 -15 -56 -15 -97 0 -58 5 -79 36 -142 54 -111 162 -209 276 -250 67 -25
182 -30 260 -11 62 14 71 14 119 -1 91 -30 159 -119 159 -211 0 -76 -67 -164
-149 -196 -102 -40 -372 -38 -504 3 -36 11 -95 34 -131 50 -36 17 -68 31 -72
31 -4 0 -33 18 -66 41 -99 67 -122 40 -63 -74 38 -76 170 -251 269 -358 93
-102 115 -174 77 -261 -23 -55 -64 -96 -119 -119 -135 -58 -235 14 -491 353
-28 37 -51 69 -51 72 0 3 -12 22 -26 43 -40 60 -114 222 -114 252 0 34 -11 51
-35 51 -23 0 -35 -17 -35 -50 0 -35 -86 -218 -139 -295 -49 -72 -141 -195
-171 -229 -174 -203 -257 -247 -371 -197 -76 34 -139 122 -139 195 0 53 35
118 100 189 33 35 79 88 102 118 23 30 45 56 48 59 16 14 84 115 106 156 50
94 12 145 -64 86 -36 -28 -163 -83 -268 -116 -121 -39 -395 -38 -495 0 -85 33
-149 121 -149 206 0 85 74 175 165 201 46 13 61 13 111 1 163 -38 316 9 445
136 95 95 129 162 129 259 0 92 -30 162 -150 346 -73 112 -104 187 -131 310
-24 113 -24 140 1 262 31 157 76 258 173 383 143 185 326 292 602 353 37 8
229 6 270 -3z"/>
<path d="M2103 4460 c-62 -28 -95 -86 -101 -175 -4 -59 -1 -78 17 -113 25 -48
48 -65 111 -80 103 -25 201 33 216 126 17 109 -20 198 -97 237 -57 29 -89 30
-146 5z"/>
<path d="M2625 4463 c-77 -40 -105 -93 -105 -196 0 -66 3 -78 29 -114 61 -84
203 -93 277 -19 25 25 34 44 39 88 9 74 -1 134 -31 180 -44 69 -141 97 -209
61z"/>
<path d="M22071 5182 c-17 -31 -16 -2813 1 -2830 9 -9 81 -12 264 -12 139 0
259 3 268 6 14 5 16 54 16 449 0 259 4 446 9 450 5 3 15 -1 23 -9 26 -27 97
-113 187 -226 50 -63 97 -122 105 -131 7 -9 49 -61 92 -115 43 -54 81 -101 84
-104 4 -3 42 -50 85 -105 115 -146 173 -203 214 -215 20 -5 159 -10 309 -10
l272 0 0 30 c0 19 -10 39 -28 57 -16 16 -66 75 -113 132 -46 57 -109 134 -139
171 -30 37 -100 123 -155 190 -55 68 -125 154 -155 190 -30 37 -91 112 -135
166 -44 54 -88 107 -97 116 -10 10 -18 24 -18 32 0 7 25 44 56 82 30 38 90
112 131 164 42 52 79 97 83 100 4 3 42 50 85 105 44 55 82 102 85 105 4 3 45
53 91 111 182 230 290 359 299 359 6 0 10 9 10 20 0 20 -5 20 -336 18 l-337
-3 -45 -65 c-44 -64 -481 -629 -512 -663 -9 -9 -34 -41 -56 -71 -43 -60 -71
-83 -86 -68 -5 5 -9 240 -9 573 -1 310 -4 660 -7 778 l-7 215 -30 8 c-16 5
-134 12 -261 15 -227 6 -232 5 -243 -15z"/>
<path d="M16615 5143 c-3 -15 -5 -196 -4 -403 2 -333 0 -375 -13 -378 -9 -2
-58 18 -110 43 -51 26 -106 53 -123 60 -16 6 -46 19 -65 27 -40 17 -186 59
-275 79 -90 20 -284 18 -375 -5 -98 -24 -239 -92 -320 -154 -108 -81 -239
-230 -307 -347 -101 -176 -153 -378 -153 -596 1 -316 108 -595 313 -815 177
-190 380 -290 642 -316 280 -27 525 47 717 218 52 46 64 38 72 -49 11 -119
-19 -107 271 -107 197 0 257 3 267 13 11 11 12 256 8 1383 l-5 1369 -266 3
-267 2 -7 -27z m-451 -1093 c178 -47 308 -147 378 -291 150 -307 50 -666 -225
-818 -222 -122 -534 -85 -706 82 -100 97 -154 208 -171 353 -39 326 126 591
417 668 85 23 92 24 164 25 37 1 98 -8 143 -19z"/>
<path d="M11610 5073 c-36 -13 -103 -37 -150 -53 -136 -47 -293 -109 -304
-120 -7 -7 -13 -86 -16 -203 l-5 -192 -177 -5 c-105 -3 -181 -9 -188 -16 -7
-7 -9 -95 -8 -265 l3 -254 175 -3 c96 -1 178 -6 183 -11 11 -11 15 -78 21
-401 9 -418 26 -748 42 -815 23 -93 60 -161 122 -223 122 -122 244 -157 610
-172 130 -5 240 -6 245 -1 4 4 6 120 5 257 l-3 249 -128 7 c-148 8 -206 28
-274 95 l-40 39 -6 105 c-11 205 -7 835 6 852 10 14 47 17 222 23 124 4 216
11 224 17 11 9 12 56 8 249 -4 131 -9 243 -12 248 -4 6 -91 10 -220 10 -242 0
-225 -7 -225 93 0 139 -24 493 -34 503 -8 7 -29 4 -76 -13z"/>
<path d="M13370 4610 c-25 -5 -81 -16 -125 -24 -147 -26 -210 -49 -420 -154
-88 -44 -177 -87 -197 -97 -21 -9 -38 -24 -38 -32 0 -13 111 -147 222 -268 20
-22 46 -52 58 -67 12 -16 28 -28 35 -28 8 0 49 23 92 51 94 61 239 133 314
155 84 25 278 30 359 9 149 -40 259 -115 296 -202 25 -57 37 -133 26 -158 -9
-20 -19 -22 -119 -29 -59 -3 -135 -11 -168 -17 -33 -5 -107 -16 -165 -24 -550
-73 -736 -132 -885 -280 -120 -120 -168 -241 -168 -425 -1 -191 50 -320 174
-447 109 -111 240 -175 454 -223 74 -17 267 -23 349 -11 169 24 315 88 463
203 89 69 93 67 93 -45 0 -59 4 -97 12 -105 9 -9 81 -12 265 -12 249 0 252 0
264 22 14 26 5 1426 -10 1518 -11 73 -39 173 -57 207 -7 16 -14 31 -14 35 0
24 -89 152 -144 208 -82 85 -150 130 -258 173 -140 57 -217 69 -453 73 -115 1
-230 -1 -255 -6z m618 -1263 c33 -26 -1 -236 -53 -330 -57 -101 -203 -198
-350 -232 -159 -37 -346 4 -434 96 -67 68 -74 133 -26 229 83 164 256 234 620
252 85 5 229 -4 243 -15z"/>
<path d="M20725 4595 c-269 -37 -494 -187 -597 -395 -45 -90 -61 -162 -61
-269 -1 -141 34 -249 112 -351 103 -134 201 -191 491 -285 344 -112 414 -148
476 -247 32 -50 27 -94 -17 -137 -82 -82 -330 -92 -472 -19 -53 27 -154 127
-172 173 -13 28 -21 35 -44 35 -16 0 -34 -7 -41 -15 -7 -8 -16 -15 -21 -15 -4
0 -65 -33 -136 -74 -70 -41 -153 -87 -183 -103 -72 -39 -75 -59 -20 -153 71
-122 199 -232 350 -302 52 -24 81 -35 205 -73 28 -9 107 -21 177 -27 487 -45
858 155 964 517 23 80 23 230 0 310 -28 98 -86 203 -146 265 -90 94 -182 146
-355 205 -44 15 -116 39 -160 55 -44 15 -118 40 -165 55 -128 40 -190 73 -228
124 -42 55 -38 86 16 149 47 56 113 84 203 84 94 1 194 -49 278 -138 34 -35
68 -64 76 -64 8 0 36 13 63 29 27 16 89 50 138 77 49 26 103 56 119 66 17 10
47 25 67 34 52 22 56 44 16 101 -82 120 -212 229 -352 297 -52 25 -99 46 -105
46 -6 0 -30 7 -55 15 -48 16 -250 46 -300 44 -17 -1 -71 -7 -121 -14z"/>
<path d="M6815 4589 c-252 -25 -490 -141 -675 -328 -145 -146 -230 -300 -292
-526 -30 -111 -33 -401 -4 -515 20 -80 52 -179 71 -220 179 -384 506 -622 910
-662 359 -35 675 69 928 306 42 39 117 129 152 181 151 228 219 525 180 785
-32 216 -105 397 -217 542 -254 329 -620 481 -1053 437z m333 -570 c95 -31
150 -66 222 -138 102 -103 170 -270 170 -416 0 -56 -27 -190 -45 -225 -8 -16
-15 -34 -15 -39 0 -6 -19 -38 -42 -72 -130 -189 -356 -284 -580 -243 -122 22
-217 68 -292 141 -94 92 -133 162 -167 302 -32 130 -17 277 42 406 71 154 237
278 408 305 82 13 226 3 299 -21z"/>
<path d="M9360 4589 c-312 -39 -629 -234 -795 -489 -295 -452 -232 -1074 148
-1451 241 -239 551 -344 917 -311 71 6 153 19 182 28 200 61 331 130 456 240
53 47 182 208 182 227 0 6 7 19 16 29 13 14 14 21 5 32 -14 17 -286 177 -350
206 -13 6 -35 19 -49 30 -13 11 -31 20 -39 20 -8 0 -45 -27 -81 -61 -175 -160
-359 -228 -539 -199 -180 28 -360 170 -421 330 -26 67 -51 185 -52 239 0 66
28 209 46 236 8 11 14 25 14 32 0 19 77 127 113 160 142 127 297 177 473 153
46 -6 95 -17 111 -25 15 -8 32 -15 36 -15 26 0 160 -94 219 -152 37 -38 73
-68 80 -68 7 0 29 10 48 22 19 12 42 27 51 33 10 5 41 23 70 38 30 16 61 34
69 41 8 7 26 18 40 24 14 7 39 21 55 32 17 11 39 24 50 29 32 14 48 38 41 63
-11 43 -91 153 -166 228 -231 230 -582 343 -930 299z"/>
<path d="M18450 4590 c-169 -19 -359 -89 -504 -185 -51 -34 -169 -143 -217
-201 -281 -337 -337 -872 -133 -1278 54 -107 100 -170 188 -260 246 -251 592
-364 1004 -328 327 29 546 145 781 414 21 24 22 30 10 44 -8 10 -27 23 -44 31
-16 7 -43 22 -60 32 -16 10 -48 28 -70 41 -63 35 -188 112 -214 132 -13 10
-30 18 -37 18 -7 0 -42 -25 -76 -57 -112 -100 -262 -153 -437 -154 -156 -1
-295 43 -404 126 -44 34 -137 151 -137 173 0 6 -8 24 -17 40 -14 25 -15 32 -4
46 12 14 90 16 792 16 863 0 801 -5 816 68 12 56 8 351 -5 400 -7 23 -17 61
-22 85 -6 23 -17 56 -25 74 -8 17 -15 35 -15 41 0 14 -77 159 -116 217 -41 63
-125 159 -184 211 -149 133 -281 197 -495 244 -61 14 -291 20 -375 10z m277
-509 c133 -32 221 -84 295 -173 59 -72 82 -121 82 -176 l1 -47 -501 -3 c-423
-2 -503 0 -513 12 -16 19 11 104 55 172 76 115 179 182 329 215 106 23 158 23
252 0z"/>
</g>
</svg>
