<?xml version="1.0" standalone="no"?>
<!DOCTYPE svg PUBLIC "-//W3C//DTD SVG 20010904//EN"
 "http://www.w3.org/TR/2001/REC-SVG-20010904/DTD/svg10.dtd">
<svg version="1.0" xmlns="http://www.w3.org/2000/svg"
 width="1342.000000pt" height="1450.000000pt" viewBox="0 0 1342.000000 1450.000000"
 preserveAspectRatio="xMidYMid meet" role="img">
<metadata>
Created by potrace 1.16, written by Peter Selinger 2001-2019
</metadata>
<g transform="translate(-588.000000,1969.000000) scale(0.100000,-0.100000)"
fill="#FFFFFF" stroke="none">
<path d="M11862 19651 c-15 -22 -37 -44 -50 -50 -13 -6 -85 -11 -167 -11 -158
0 -144 4 -199 -65 -24 -30 -25 -30 -129 -31 -113 0 -127 -5 -153 -55 -18 -36
-38 -41 -157 -43 -92 -1 -100 -3 -116 -25 -43 -62 -58 -71 -116 -71 -42 0 -59
-5 -71 -19 -67 -79 -70 -81 -125 -81 l-52 0 -94 -97 -93 -96 -58 -4 c-50 -2
-60 -6 -84 -35 -15 -18 -31 -36 -35 -40 -26 -24 -81 -80 -95 -97 -14 -17 -30
-21 -74 -21 -50 0 -59 -3 -85 -31 -16 -17 -29 -35 -29 -39 0 -5 -16 -18 -35
-30 -20 -12 -42 -35 -50 -51 -9 -16 -29 -36 -46 -44 -17 -9 -40 -32 -51 -51
-11 -19 -33 -41 -49 -49 -15 -8 -36 -29 -46 -46 -10 -17 -32 -39 -50 -50 -18
-11 -41 -35 -52 -53 -11 -18 -32 -39 -47 -47 -15 -8 -35 -27 -45 -44 -11 -16
-36 -41 -56 -55 -35 -24 -38 -30 -44 -85 -7 -75 -12 -87 -50 -109 -16 -10 -40
-33 -52 -51 -12 -18 -34 -41 -50 -50 -15 -9 -38 -32 -50 -51 -12 -19 -30 -36
-39 -40 -35 -11 -58 -54 -58 -109 0 -51 -2 -55 -47 -92 -43 -37 -46 -43 -51
-98 -5 -58 -6 -60 -81 -132 -42 -40 -84 -79 -93 -88 -15 -12 -18 -32 -18 -120
0 -117 7 -100 -77 -175 -19 -16 -23 -30 -23 -75 0 -57 0 -58 -65 -109 l-30
-24 -5 -163 -5 -163 -42 -29 c-31 -20 -44 -37 -48 -60 -3 -18 -5 -333 -3 -700
l3 -669 27 -23 c16 -13 36 -28 45 -34 16 -8 19 -31 23 -177 5 -164 5 -167 30
-183 57 -37 70 -57 70 -113 0 -51 2 -55 50 -99 l50 -46 0 -102 c0 -97 1 -103
26 -125 15 -13 36 -32 46 -44 11 -11 34 -33 50 -50 17 -16 39 -37 49 -46 13
-11 19 -30 20 -63 1 -65 9 -81 55 -112 38 -26 39 -29 45 -96 5 -58 10 -71 30
-84 13 -9 56 -49 96 -88 72 -72 73 -73 73 -125 l0 -52 94 -90 94 -91 4 -59 c4
-51 9 -63 34 -82 63 -51 64 -52 64 -109 0 -59 -3 -54 78 -125 18 -16 22 -30
22 -75 0 -59 -3 -54 78 -125 21 -19 22 -24 22 -220 0 -219 -3 -206 64 -253 28
-19 34 -50 14 -66 -7 -6 -28 -22 -45 -37 l-33 -26 0 -200 0 -201 -50 -46 c-48
-44 -50 -48 -50 -100 0 -47 -4 -56 -32 -82 -18 -16 -36 -32 -40 -36 -8 -9 -89
-90 -100 -101 -4 -4 -23 -23 -42 -42 -19 -19 -44 -43 -55 -52 -15 -13 -21 -30
-21 -62 0 -61 -13 -91 -50 -113 -17 -10 -41 -33 -52 -51 -11 -18 -32 -39 -47
-47 -15 -7 -40 -32 -54 -54 -26 -39 -30 -41 -77 -41 -63 0 -90 -13 -117 -55
-12 -18 -35 -41 -51 -51 -16 -9 -37 -30 -47 -46 -9 -17 -32 -39 -51 -50 -18
-11 -36 -28 -39 -38 -12 -37 -54 -60 -109 -60 -48 0 -53 -2 -97 -50 l-47 -51
-100 3 c-86 2 -103 0 -121 -16 -11 -10 -23 -27 -26 -37 -12 -38 -42 -43 -230
-40 -109 1 -191 -2 -208 -8 -15 -6 -37 -26 -48 -45 -23 -40 -45 -49 -108 -48
-40 0 -49 5 -92 52 l-47 51 -248 -2 -247 -2 -23 29 c-59 73 -72 79 -102 43 -9
-12 -27 -33 -39 -48 l-21 -26 -137 3 c-157 4 -178 -2 -217 -59 -27 -37 -30
-39 -83 -39 l-55 0 -169 -168 -168 -169 -5 -58 c-5 -60 -3 -58 -77 -117 -21
-17 -21 -24 -21 -323 0 -299 0 -306 21 -323 74 -59 72 -57 77 -117 l5 -58 216
-216 216 -216 103 0 c103 0 104 0 128 -30 55 -70 35 -65 255 -65 l201 0 26
-28 c15 -16 35 -38 44 -50 l18 -22 450 0 c429 0 451 1 466 19 9 10 29 33 44
50 l28 31 251 0 c276 0 249 -6 305 65 l24 30 157 0 157 0 24 30 c51 65 52 65
109 65 59 0 54 -3 125 77 16 19 30 23 75 23 42 0 59 5 71 19 73 86 62 81 178
81 l106 0 28 39 c33 48 59 61 122 61 42 0 52 4 67 26 10 15 29 36 42 48 13 11
36 34 50 50 14 15 37 38 50 50 36 32 64 60 88 90 19 22 29 26 78 26 48 0 59
-4 79 -26 30 -34 56 -60 90 -90 22 -20 26 -31 26 -79 0 -58 -9 -74 -70 -115
-18 -12 -24 -29 -29 -85 -5 -50 -12 -72 -25 -79 -58 -35 -66 -47 -66 -96 0
-63 -13 -89 -61 -122 -37 -27 -39 -30 -39 -83 l0 -56 -150 -149 -150 -149 0
-55 c0 -52 -2 -57 -37 -83 -21 -15 -42 -34 -47 -42 -8 -13 -145 -149 -186
-183 -16 -14 -20 -30 -20 -73 0 -48 -4 -59 -26 -79 -15 -13 -36 -32 -46 -44
-11 -11 -34 -33 -50 -50 -17 -16 -39 -39 -50 -50 -11 -11 -34 -33 -50 -50 -17
-16 -37 -36 -45 -43 -8 -8 -27 -27 -42 -44 -15 -16 -39 -40 -52 -51 -13 -12
-36 -35 -50 -50 -14 -16 -37 -39 -50 -50 -13 -12 -36 -35 -51 -50 -15 -16 -37
-39 -49 -50 -12 -12 -34 -35 -49 -50 -15 -16 -37 -36 -50 -44 -18 -12 -24 -29
-29 -85 -6 -52 -12 -71 -26 -79 -11 -6 -31 -24 -46 -40 -39 -41 -63 -65 -93
-92 l-26 -23 0 -351 c0 -331 1 -351 19 -366 28 -24 73 -68 97 -95 12 -13 33
-32 48 -42 21 -15 26 -26 26 -61 0 -48 17 -106 31 -106 5 0 56 -47 113 -105
l104 -105 101 0 c112 0 96 7 171 -77 19 -23 21 -23 316 -23 l297 0 46 50 c44
48 48 50 100 50 46 0 57 4 82 31 16 17 29 35 29 39 0 4 15 17 34 28 18 11 42
33 51 50 10 16 31 37 47 47 16 9 37 30 47 46 10 16 36 42 58 58 23 17 44 39
48 50 3 11 21 29 40 41 19 12 43 36 55 55 12 19 30 37 41 40 11 4 33 25 49 46
16 22 44 50 62 62 30 20 34 29 39 82 6 64 16 95 30 95 5 0 110 101 234 225
l225 225 0 50 0 51 150 149 150 149 0 56 c0 53 2 56 39 83 22 15 47 40 56 56
10 15 33 37 51 48 36 21 40 31 47 113 4 37 11 54 28 65 12 8 34 28 48 43 29
33 54 56 94 92 23 21 27 32 27 80 0 42 5 59 19 71 79 67 81 70 81 128 0 45 4
60 21 74 81 65 74 50 74 167 0 103 1 108 26 128 14 12 34 27 44 33 14 8 20 28
26 79 5 56 11 73 29 85 68 46 70 51 70 162 l0 103 50 46 c49 45 50 48 50 102
0 91 51 116 97 48 13 -19 38 -45 57 -57 39 -27 48 -59 40 -143 -9 -77 7 -119
56 -153 39 -27 40 -30 40 -84 0 -56 1 -58 50 -103 l50 -46 0 -103 c0 -113 -7
-97 78 -172 18 -16 22 -30 22 -75 0 -59 1 -61 69 -113 18 -14 25 -31 30 -85 4
-36 9 -68 11 -70 79 -56 77 -54 82 -116 l4 -60 97 -94 97 -94 0 -52 c0 -47 4
-56 33 -82 17 -16 36 -33 40 -38 10 -10 81 -81 96 -96 6 -5 25 -26 43 -45 18
-19 42 -40 52 -46 15 -8 21 -26 27 -80 6 -60 10 -72 35 -89 16 -11 37 -31 49
-44 11 -13 30 -33 43 -45 12 -11 35 -34 50 -49 33 -35 69 -70 100 -97 18 -16
22 -30 22 -75 0 -49 4 -59 27 -78 14 -12 39 -35 54 -52 15 -16 35 -37 44 -45
9 -8 32 -31 51 -50 42 -43 41 -42 84 -84 19 -19 42 -42 50 -51 8 -8 31 -31 50
-50 19 -18 42 -41 51 -51 21 -22 81 -82 103 -103 10 -9 33 -32 51 -51 19 -19
42 -42 50 -50 9 -8 32 -31 51 -50 42 -43 41 -42 84 -84 19 -19 42 -42 50 -51
8 -8 31 -31 50 -50 19 -18 42 -41 50 -50 8 -9 29 -29 45 -44 17 -15 40 -40 52
-54 19 -23 29 -27 78 -27 59 0 54 3 125 -78 19 -22 21 -22 315 -22 l297 0 28
31 c15 17 35 40 44 50 12 14 29 19 72 19 51 0 59 3 84 33 16 17 35 38 43 46 8
7 28 27 45 43 37 38 62 63 100 100 16 17 36 37 43 45 8 8 29 27 47 43 29 25
32 33 32 84 0 43 5 60 19 72 79 67 81 70 81 127 0 53 2 56 48 95 l47 40 3 127
c5 171 1 188 -51 222 -40 27 -42 32 -48 88 -7 76 -11 84 -59 117 -38 27 -40
30 -40 83 l0 55 -295 295 -295 295 0 55 c0 53 -2 56 -39 83 -22 15 -47 40 -56
55 -9 15 -32 38 -50 50 -18 12 -41 34 -50 50 -9 15 -32 38 -50 50 -18 12 -41
34 -50 50 -9 15 -28 35 -43 44 -43 27 -52 44 -52 100 0 46 -4 58 -26 77 -28
25 -48 45 -94 92 -15 16 -37 36 -50 44 -18 12 -24 29 -29 85 -6 52 -12 71 -26
79 -19 11 -50 41 -91 87 -12 13 -33 32 -48 42 -22 15 -26 25 -26 67 0 50 -16
100 -32 100 -5 0 -43 35 -86 77 l-77 76 -5 111 -5 110 -35 24 c-47 31 -63 65
-57 118 4 36 14 52 71 109 56 56 71 66 91 61 14 -4 25 -10 25 -16 0 -5 57 -66
126 -136 l125 -128 60 -4 c60 -4 71 -12 105 -68 7 -13 29 -20 79 -25 56 -5 73
-11 85 -29 41 -61 57 -70 115 -70 49 0 59 -4 78 -26 64 -77 57 -74 171 -74
104 0 104 0 130 -31 14 -17 26 -34 26 -39 0 -13 32 -23 95 -29 54 -5 61 -9 83
-41 35 -53 63 -64 151 -57 90 7 120 -3 153 -53 l24 -35 261 -5 c156 -3 265 -9
271 -15 4 -5 20 -27 36 -47 l27 -38 500 0 500 0 22 24 c12 13 29 34 38 47 16
24 20 24 230 29 l213 5 24 35 c25 38 67 62 95 54 37 -11 76 7 105 49 27 41 29
42 97 48 58 5 71 10 84 30 15 22 45 53 92 93 14 12 19 29 19 71 0 58 -1 56 71
121 13 12 36 35 51 50 15 16 39 39 53 51 l25 22 0 396 0 396 -25 22 c-14 12
-38 35 -53 50 -26 27 -52 53 -97 96 -11 10 -30 29 -41 42 -12 13 -35 36 -50
51 -16 15 -39 38 -51 50 -11 13 -34 35 -50 50 -15 15 -38 39 -50 53 -19 21
-31 25 -78 25 -57 0 -58 0 -109 65 -24 30 -25 30 -132 31 -106 1 -108 1 -130
30 -63 79 -72 81 -112 24 -15 -21 -34 -42 -42 -46 -8 -3 -141 -5 -295 -4 -171
1 -291 -3 -307 -9 -15 -6 -34 -24 -43 -40 -20 -40 -47 -53 -109 -53 -53 1 -58
4 -107 74 -16 23 -21 23 -205 25 -104 1 -199 2 -212 2 -14 1 -32 15 -50 41
-15 22 -36 42 -47 46 -11 4 -64 8 -118 8 -107 1 -97 -3 -148 67 -12 18 -30 24
-85 30 -56 6 -71 11 -84 30 -8 13 -68 77 -134 143 l-118 120 -56 4 -56 5 -118
118 -118 118 0 51 c0 50 -1 52 -80 130 -45 44 -84 80 -89 80 -15 0 -31 51 -31
100 0 41 -4 52 -25 67 -75 52 -70 43 -67 145 2 110 -6 134 -59 170 l-39 28 0
355 c0 392 -6 353 65 409 30 24 30 25 30 128 l0 104 80 77 c44 42 88 83 98 92
12 11 17 30 17 70 0 59 3 63 74 122 22 19 26 29 26 78 0 48 4 59 28 80 45 41
66 61 87 86 12 13 34 33 50 45 25 17 29 28 31 70 2 70 10 90 48 112 19 11 41
33 51 48 9 16 34 41 56 56 37 27 39 30 39 84 0 54 2 57 50 104 48 47 50 50 50
104 0 54 2 57 39 84 48 33 61 59 61 122 0 41 4 52 25 67 76 53 70 35 70 208
l0 156 47 42 47 42 3 159 c3 154 4 159 27 175 13 9 34 26 47 38 l24 22 0 546
0 547 -22 19 c-13 10 -34 27 -48 38 -24 19 -25 23 -30 182 l-5 163 -35 24
c-49 32 -61 64 -54 144 8 96 0 123 -49 156 -40 26 -42 31 -48 87 -6 63 -16 95
-29 95 -5 0 -22 12 -39 26 -31 26 -31 26 -31 131 l0 105 -32 29 c-38 33 -37
33 -80 79 -18 20 -44 42 -57 51 -20 13 -25 26 -30 84 -6 67 -7 70 -45 95 -21
15 -45 38 -52 53 -8 14 -30 35 -49 47 -37 23 -41 33 -48 115 -4 37 -11 54 -27
65 -20 13 -33 26 -93 87 -8 9 -30 31 -49 51 -20 19 -42 41 -50 50 -9 8 -31 30
-50 50 -20 19 -43 42 -52 51 -10 9 -33 32 -51 51 -19 19 -41 41 -49 49 -18 17
-70 69 -87 87 -8 8 -30 30 -49 49 -19 18 -42 41 -51 51 -9 9 -32 32 -51 52
-20 19 -42 41 -50 50 -9 8 -31 30 -50 50 -20 19 -42 41 -51 49 -61 60 -74 73
-88 94 -13 19 -27 24 -83 27 -66 4 -67 5 -96 48 -17 23 -39 46 -50 49 -12 4
-32 24 -45 46 -26 40 -36 45 -120 52 -38 4 -53 10 -65 29 -36 55 -57 68 -112
68 -51 0 -55 2 -99 50 -45 49 -47 50 -103 50 -54 0 -57 1 -84 40 -33 48 -41
52 -117 59 -54 5 -61 9 -83 41 -33 50 -63 60 -149 53 -88 -7 -118 4 -155 58
l-28 39 -155 0 c-172 0 -156 -5 -222 74 l-21 26 -696 0 -696 0 -28 -39z m-227
-3708 c14 -16 34 -38 45 -50 16 -19 30 -23 75 -23 49 0 59 -4 78 -26 24 -30
52 -58 88 -90 13 -12 36 -35 51 -50 15 -16 39 -39 53 -51 21 -19 25 -31 25
-78 0 -49 4 -59 26 -78 15 -12 37 -32 51 -44 l24 -23 -3 -351 -3 -351 -24 -17
c-62 -43 -71 -58 -71 -116 0 -43 -4 -59 -20 -72 -48 -41 -190 -185 -190 -192
0 -21 -60 -31 -195 -31 -157 0 -145 4 -198 -63 -16 -20 -34 -30 -64 -34 -56
-7 -92 9 -125 58 l-28 39 -155 0 c-154 0 -156 0 -178 25 -12 14 -35 38 -50 53
-28 26 -39 37 -91 92 -13 14 -34 32 -47 41 -18 13 -24 29 -30 85 -6 57 -11 71
-30 84 -13 8 -34 25 -46 37 -23 22 -23 24 -23 323 0 282 1 301 19 316 86 73
81 62 81 178 l0 106 39 28 c22 15 46 39 55 54 9 15 31 37 49 50 18 12 36 29
41 37 28 46 55 61 108 61 51 0 55 2 99 50 l46 50 247 0 247 0 24 -27z m2448 2
c12 -14 35 -38 50 -53 28 -27 45 -43 91 -92 13 -14 34 -35 47 -46 13 -12 36
-35 51 -50 15 -16 39 -39 53 -51 21 -19 25 -31 25 -78 0 -49 4 -59 26 -78 15
-12 37 -32 50 -44 l24 -22 0 -396 0 -397 -26 -21 c-23 -19 -42 -38 -97 -95
-38 -40 -105 -105 -145 -142 -15 -14 -34 -36 -43 -50 -16 -24 -22 -25 -134
-30 -102 -4 -119 -8 -129 -24 -6 -10 -21 -31 -33 -45 -21 -26 -21 -26 -178
-26 l-157 0 -24 30 c-54 68 -46 65 -159 65 -97 0 -107 2 -125 23 -33 36 -66
71 -91 93 -13 12 -36 35 -50 50 -14 16 -38 39 -52 51 -26 21 -27 25 -27 127 0
92 -3 108 -19 122 -10 9 -33 29 -50 44 l-31 28 0 249 0 248 50 46 50 46 0 102
c0 96 1 103 25 124 14 12 35 32 46 43 12 12 35 35 51 52 17 16 37 36 45 43 8
8 27 29 43 47 25 29 33 32 84 32 43 0 60 5 72 19 9 10 29 33 44 50 l28 31 297
0 296 0 22 -25z"/>
</g>
</svg>
