<?xml version="1.0" standalone="no"?>
<!DOCTYPE svg PUBLIC "-//W3C//DTD SVG 20010904//EN"
 "http://www.w3.org/TR/2001/REC-SVG-20010904/DTD/svg10.dtd">
<svg version="1.0" xmlns="http://www.w3.org/2000/svg"
 width="2151.913698pt" height="345.046782pt" viewBox="0 0 2151.913698 345.046782"
 preserveAspectRatio="xMidYMid meet" role="img">
<metadata>
Created by potrace 1.16, written by Peter Selinger 2001-2019
</metadata>
<g transform="translate(-124.086302,471.015549) scale(0.100000,-0.100000)"
fill="#FFFFFF" stroke="none">
<path d="M20701 4691 l-21 -21 0 -1684 c0 -1413 2 -1685 14 -1695 9 -8 105
-11 332 -9 l319 3 3 538 c2 518 3 537 21 537 10 0 26 -10 34 -23 9 -12 32 -40
52 -62 20 -22 55 -65 78 -95 23 -30 47 -59 53 -65 6 -5 39 -46 73 -90 98 -126
104 -134 134 -168 16 -18 53 -63 82 -102 29 -38 65 -83 79 -100 45 -51 49 -56
158 -190 120 -148 141 -169 183 -185 16 -6 121 -14 233 -17 192 -6 206 -5 218
12 11 14 14 61 14 187 0 149 -2 169 -18 185 -10 10 -105 126 -212 258 -106
132 -198 245 -205 250 -6 6 -35 42 -65 80 -29 39 -57 72 -61 75 -23 16 -199
246 -199 260 0 9 8 25 18 36 9 10 33 39 52 64 18 25 42 53 51 62 10 9 48 57
85 105 38 48 74 93 80 98 10 9 398 490 452 559 20 27 22 39 22 175 0 80 -4
151 -8 157 -5 8 -89 13 -275 15 -306 5 -264 16 -342 -96 -46 -65 -142 -190
-352 -459 -395 -505 -402 -512 -423 -490 -4 5 -10 427 -13 937 -2 556 -8 932
-13 937 -21 21 -119 31 -360 37 -248 6 -251 6 -273 -16z"/>
<path d="M14160 4670 c-13 -8 -15 -74 -16 -485 -1 -283 -5 -480 -11 -486 -6
-6 -50 12 -119 47 -60 31 -143 70 -184 86 -41 16 -84 33 -95 39 -20 10 -90 31
-180 54 -151 39 -198 45 -334 45 -118 0 -157 -4 -242 -26 -56 -14 -109 -29
-118 -34 -9 -5 -47 -23 -86 -41 -151 -71 -294 -191 -426 -359 -91 -117 -99
-128 -99 -138 0 -5 -8 -20 -19 -33 -10 -13 -22 -35 -26 -49 -4 -14 -13 -32
-19 -40 -31 -39 -95 -245 -121 -390 -31 -171 -8 -512 45 -660 41 -113 68 -181
92 -225 16 -27 34 -61 40 -75 32 -63 119 -179 196 -261 129 -137 262 -226 427
-287 144 -53 179 -61 324 -78 123 -15 159 -16 255 -5 61 7 149 24 196 38 151
45 335 146 421 230 59 56 72 46 84 -67 6 -52 14 -101 18 -107 12 -20 610 -18
626 1 15 18 16 3285 0 3301 -13 13 -608 19 -629 5z m-560 -1341 c211 -51 373
-177 463 -361 26 -53 47 -105 47 -115 0 -10 7 -43 15 -73 42 -150 0 -406 -87
-545 -29 -45 -96 -123 -138 -160 -55 -49 -69 -58 -146 -94 -253 -119 -563 -87
-774 81 -142 112 -218 254 -244 454 -13 95 -13 123 0 219 12 97 38 190 65 235
5 8 15 26 21 40 7 14 38 57 69 95 158 197 447 288 709 224z"/>
<path d="M8185 4571 c-6 -4 -28 -13 -50 -19 -42 -12 -133 -43 -250 -87 -38
-14 -84 -30 -102 -36 -18 -5 -45 -16 -60 -24 -15 -8 -34 -15 -42 -15 -8 0 -34
-11 -58 -25 l-43 -26 0 -215 c0 -129 -4 -223 -10 -235 -10 -18 -23 -19 -208
-19 -163 0 -201 -3 -220 -16 -22 -15 -22 -16 -22 -318 0 -268 2 -305 16 -310
9 -3 105 -6 214 -6 188 0 200 -1 210 -20 6 -12 14 -201 20 -492 14 -621 32
-920 63 -1008 34 -99 61 -142 129 -212 57 -59 136 -118 155 -118 5 0 24 -8 43
-18 74 -39 241 -63 535 -76 174 -7 285 -9 293 -3 17 13 18 587 0 605 -8 8 -47
12 -108 12 -192 1 -275 27 -369 116 l-45 42 -7 122 c-11 180 -6 1027 6 1039 6
6 114 13 265 17 142 4 261 11 268 17 9 7 12 78 12 292 0 156 -3 290 -6 299 -5
14 -38 16 -258 16 -138 0 -258 4 -266 9 -11 8 -16 47 -21 178 -24 563 -22 543
-57 543 -10 0 -22 -4 -27 -9z"/>
<path d="M10260 4000 c-25 -4 -81 -13 -125 -20 -86 -13 -231 -51 -282 -75 -17
-8 -35 -15 -39 -15 -19 0 -496 -244 -501 -256 -3 -7 24 -46 59 -85 34 -40 83
-95 108 -124 25 -28 70 -80 100 -115 30 -35 61 -71 68 -81 32 -46 47 -44 143
20 49 34 92 61 95 61 2 0 35 17 72 38 128 71 276 118 403 128 222 16 486 -80
574 -210 59 -86 87 -244 48 -264 -10 -5 -72 -12 -138 -15 -66 -4 -160 -14
-210 -22 -49 -9 -139 -22 -200 -30 -504 -64 -722 -120 -933 -239 -45 -26 -131
-107 -175 -164 -97 -128 -137 -258 -137 -443 0 -128 24 -250 64 -324 9 -16 16
-33 16 -37 0 -20 73 -112 145 -184 159 -159 370 -243 685 -274 209 -21 415 17
603 110 91 46 202 119 253 166 66 63 80 46 75 -92 -2 -83 0 -102 13 -114 13
-10 84 -14 310 -18 l293 -5 23 23 23 23 -6 856 c-3 482 -10 891 -16 936 -14
107 -76 308 -108 346 -7 8 -13 19 -13 24 0 19 -80 126 -145 193 -68 70 -176
147 -260 185 -96 45 -167 64 -345 97 -62 11 -471 11 -540 0z m716 -1506 c28
-5 31 -20 24 -134 -7 -101 -33 -215 -56 -241 -8 -8 -14 -20 -14 -26 0 -20 -89
-120 -138 -155 -113 -82 -307 -148 -430 -148 -72 1 -206 31 -269 60 -61 29
-98 60 -137 113 -27 37 -31 50 -31 107 0 54 6 77 32 131 46 93 105 150 205
197 46 22 99 43 118 47 19 4 54 13 76 20 37 12 195 29 349 38 59 3 241 -2 271
-9z"/>
<path d="M19090 3984 c-126 -15 -274 -60 -355 -106 -11 -6 -29 -16 -40 -23
-100 -55 -229 -174 -286 -265 -54 -86 -66 -111 -95 -196 -23 -69 -26 -95 -26
-209 0 -114 3 -140 26 -209 43 -127 97 -216 183 -296 86 -83 110 -98 263 -168
53 -25 102 -42 230 -83 52 -17 118 -39 145 -49 28 -10 66 -23 85 -29 180 -51
309 -131 364 -225 32 -54 32 -77 4 -127 -40 -71 -108 -101 -285 -124 -70 -9
-210 18 -293 58 -85 41 -195 149 -226 222 -12 28 -20 35 -43 35 -16 0 -34 -7
-41 -15 -6 -8 -22 -17 -33 -21 -12 -4 -100 -51 -195 -106 -95 -54 -181 -102
-190 -105 -32 -12 -82 -55 -82 -72 0 -35 94 -190 152 -251 189 -197 448 -311
785 -347 146 -15 166 -15 306 1 350 40 584 165 750 403 20 29 37 56 37 61 0 4
9 23 19 43 83 155 78 459 -10 622 -16 29 -37 68 -48 89 -27 47 -123 146 -186
190 -99 68 -226 123 -445 192 -47 15 -101 33 -120 41 -19 7 -82 28 -140 46
-58 18 -114 38 -125 46 -11 7 -27 13 -35 13 -23 0 -80 44 -117 92 -41 51 -42
89 -5 144 61 92 146 134 273 134 74 0 88 -3 165 -41 65 -32 100 -58 161 -120
80 -81 101 -91 138 -65 11 7 52 30 90 51 117 63 147 79 230 126 44 24 93 51
109 59 16 8 35 24 42 35 11 17 9 26 -16 64 -184 274 -472 442 -832 486 -144
17 -146 17 -288 -1z"/>
<path d="M16370 3979 c-58 -5 -125 -15 -150 -23 -25 -8 -61 -17 -80 -21 -81
-15 -299 -114 -385 -173 -85 -59 -188 -149 -235 -204 -75 -88 -130 -161 -130
-174 0 -6 -6 -16 -13 -22 -36 -30 -116 -221 -164 -392 -26 -92 -27 -104 -27
-345 0 -239 1 -254 26 -345 47 -172 82 -255 164 -398 62 -109 244 -301 350
-369 10 -7 35 -23 54 -35 19 -13 73 -41 120 -64 178 -86 298 -119 512 -141
141 -14 182 -15 308 -4 154 14 186 19 290 46 245 63 468 209 654 429 55 64 55
78 0 106 -16 8 -45 24 -64 36 -19 12 -60 36 -90 53 -110 61 -136 77 -210 127
-77 52 -108 66 -128 55 -9 -5 -43 -34 -74 -63 -115 -109 -335 -188 -523 -188
-94 0 -256 33 -334 67 -71 31 -165 95 -209 142 -43 46 -102 134 -102 153 0 8
-7 23 -15 34 -8 10 -15 34 -15 52 l0 32 934 0 c514 0 942 3 951 6 29 12 44 59
55 184 12 128 0 354 -22 409 -6 14 -16 49 -23 76 -27 102 -77 214 -151 344
-31 55 -131 182 -192 245 -59 61 -198 173 -244 197 -132 69 -233 113 -288 124
-19 4 -53 13 -76 20 -39 13 -276 36 -338 34 -17 -1 -78 -6 -136 -10z m327
-618 c43 -10 96 -27 118 -38 119 -55 234 -161 286 -265 32 -64 49 -151 31
-162 -6 -4 -280 -6 -609 -6 -461 0 -600 3 -610 13 -9 9 -7 26 10 77 35 102 65
150 137 220 83 81 182 134 298 159 155 35 204 35 339 2z"/>
<path d="M2325 3971 c-64 -10 -194 -46 -265 -72 -69 -26 -210 -96 -231 -115
-8 -8 -19 -14 -23 -14 -14 0 -150 -108 -211 -167 -75 -72 -128 -138 -186 -228
-64 -101 -68 -107 -79 -135 -6 -14 -19 -41 -30 -61 -11 -20 -20 -43 -20 -52 0
-8 -9 -35 -20 -61 -20 -44 -21 -61 -18 -453 3 -367 5 -411 20 -438 10 -16 18
-36 18 -43 0 -14 43 -115 61 -142 5 -8 15 -26 22 -40 42 -86 162 -239 256
-328 134 -127 389 -271 535 -302 27 -6 56 -15 66 -20 9 -5 88 -17 174 -26 138
-15 173 -16 279 -5 223 24 348 59 521 147 188 96 321 209 455 386 79 104 109
151 117 183 3 13 12 29 19 35 8 6 17 24 20 40 3 15 15 45 26 66 10 21 19 46
19 55 0 9 6 32 14 50 25 61 56 276 56 394 0 119 -29 321 -55 388 -8 20 -15 45
-15 55 0 9 -8 33 -19 52 -10 19 -22 50 -25 67 -4 18 -12 35 -17 39 -5 3 -16
20 -23 39 -21 50 -99 166 -164 243 -158 188 -375 335 -597 405 -195 61 -188
60 -415 63 -118 1 -237 -1 -265 -5z m388 -662 c193 -33 380 -182 471 -372 38
-80 68 -219 68 -312 0 -73 -26 -217 -48 -265 -67 -144 -119 -214 -214 -290
-257 -206 -652 -197 -891 20 -153 138 -229 316 -229 540 0 215 75 391 224 527
158 145 365 196 619 152z"/>
<path d="M5395 3971 c-430 -86 -765 -319 -963 -669 -23 -41 -42 -76 -42 -80 0
-3 -8 -24 -19 -46 -74 -161 -116 -402 -107 -611 9 -198 53 -377 138 -550 50
-103 57 -114 121 -207 100 -147 270 -296 438 -386 162 -86 296 -126 498 -148
142 -16 161 -16 309 0 251 27 442 94 637 224 123 83 304 279 345 375 6 12 15
29 22 39 17 23 1 39 -96 93 -44 25 -88 50 -96 55 -8 5 -41 24 -73 42 -33 18
-75 43 -95 55 -21 12 -47 27 -60 32 -12 6 -35 19 -50 30 -57 40 -65 38 -151
-43 -210 -196 -431 -274 -668 -237 -180 28 -388 185 -462 347 -13 27 -28 60
-36 74 -15 29 -55 228 -55 274 0 49 38 215 63 276 87 216 304 380 537 408 224
28 425 -47 616 -230 l92 -89 34 16 c18 8 85 47 148 85 63 38 129 76 145 85 17
8 66 37 110 63 95 57 102 74 56 142 -17 25 -31 49 -31 53 0 15 -117 153 -174
204 -74 68 -193 148 -296 199 -77 38 -119 53 -300 110 -43 13 -102 17 -275 20
-121 1 -238 -1 -260 -5z"/>
</g>
</svg>
